<?xml version="1.0" standalone="no"?>
<!DOCTYPE svg PUBLIC "-//W3C//DTD SVG 20010904//EN"
 "http://www.w3.org/TR/2001/REC-SVG-20010904/DTD/svg10.dtd">
<svg version="1.0" xmlns="http://www.w3.org/2000/svg"
 width="427.000000pt" height="427.000000pt" viewBox="0 0 427.000000 427.000000"
 preserveAspectRatio="xMidYMid meet">
<metadata>
Created by potrace 1.16, written by Peter Selinger 2001-2019
</metadata>
<g transform="translate(0.000000,427.000000) scale(0.100000,-0.100000)"
fill="#f79926" stroke="none">
<path d="M1875 4089 c-39 -19 -49 -49 -55 -179 -6 -130 -13 -154 -59 -203 -51
-55 -73 -61 -248 -67 -161 -5 -163 -5 -190 -33 -27 -26 -28 -33 -34 -152 -7
-147 -28 -201 -98 -250 -41 -28 -47 -30 -182 -36 -119 -5 -144 -9 -167 -26
-54 -40 -63 -71 -68 -220 -7 -180 -16 -216 -74 -274 -59 -59 -102 -69 -284
-69 -122 0 -136 -2 -167 -23 -56 -38 -59 -51 -59 -287 0 -232 3 -247 53 -284
26 -19 46 -21 210 -26 176 -5 184 -6 229 -33 69 -40 85 -82 91 -237 8 -214 25
-232 222 -241 136 -7 173 -17 223 -63 50 -44 65 -93 70 -221 7 -183 21 -195
232 -195 143 0 183 -10 233 -58 51 -48 61 -78 67 -212 7 -132 16 -160 57 -179
15 -7 101 -11 217 -11 268 0 270 1 264 248 -3 144 -4 152 -28 177 -38 41 -62
47 -222 54 -142 6 -148 7 -189 36 -67 47 -88 98 -97 242 -8 109 -11 126 -32
148 -33 35 -78 45 -210 45 -130 0 -172 14 -227 71 -47 50 -63 105 -63 222 0
80 4 109 20 141 30 63 47 70 200 76 158 7 201 24 250 98 36 54 43 101 38 239
-5 123 -24 174 -80 216 -51 37 -64 40 -205 46 -112 5 -136 9 -160 27 -53 39
-63 74 -63 229 0 160 9 201 52 251 53 60 77 68 238 74 218 10 233 23 243 204
7 131 29 184 96 231 41 29 47 30 189 36 160 7 184 13 222 54 24 25 25 33 28
177 4 163 -3 194 -46 228 -23 18 -40 20 -221 19 -108 0 -205 -5 -216 -10z"/>
<path d="M2539 3600 c-105 -19 -130 -59 -137 -218 -4 -93 -9 -119 -26 -144
-48 -70 -109 -88 -304 -88 -196 0 -202 -9 -202 -287 0 -287 -2 -285 256 -293
168 -5 171 -5 220 -35 36 -23 56 -45 77 -86 26 -50 29 -70 34 -180 9 -202 35
-229 215 -229 135 0 172 -11 229 -69 58 -58 75 -122 65 -251 -7 -93 -27 -142
-70 -174 -25 -19 -42 -21 -200 -21 l-173 0 -36 28 c-20 15 -42 38 -49 50 -7
12 -15 76 -18 142 -7 136 -20 171 -80 208 -31 20 -51 22 -190 25 -171 3 -203
-5 -244 -61 -19 -25 -21 -46 -24 -180 -4 -166 3 -210 43 -247 25 -23 36 -25
178 -31 253 -12 307 -49 307 -211 0 -87 14 -144 43 -177 41 -45 73 -51 269
-51 214 0 238 7 276 80 18 36 22 61 22 130 0 109 12 151 54 188 46 40 108 52
265 52 117 0 131 2 162 23 53 36 61 74 57 282 -5 265 -14 275 -243 275 -158 0
-209 10 -259 52 -63 52 -79 95 -86 243 -10 210 -27 227 -224 235 -115 5 -136
9 -176 30 -24 14 -58 44 -75 68 -29 42 -30 48 -33 170 -3 116 -1 131 20 171
38 74 74 86 248 86 136 0 148 -2 189 -25 66 -38 83 -78 90 -220 7 -132 17
-157 82 -195 30 -18 52 -20 194 -20 246 0 255 9 255 265 0 243 -6 250 -250
260 -163 7 -193 14 -237 62 -33 35 -43 72 -43 162 0 65 -5 91 -22 126 -37 71
-71 83 -252 86 -83 2 -172 -1 -197 -6z"/>
<path d="M3710 2498 c-73 -50 -100 -135 -85 -273 8 -79 35 -122 95 -152 37
-19 60 -23 142 -23 110 0 148 11 190 56 40 43 48 75 48 182 0 114 -19 165 -71
203 -31 22 -46 24 -159 27 -117 3 -127 2 -160 -20z"/>
</g>
</svg>
